HIERARCHY
ROOT hip
{
	OFFSET 0.000000 0.000000 0.000000 
	CHANNELS 6 Xposition Yposition Zposition Xrotation Zrotation Yrotation
	JOINT abdomen
	{
		OFFSET 0.000000 3.402643 0.000000 
		CHANNELS 3 Xrotation Zrotation Yrotation
		JOINT chest
		{
			OFFSET 0.000000 8.438565 -0.680529 
			CHANNELS 3 Xrotation Zrotation Yrotation
			JOINT neck
			{
				OFFSET 0.000000 10.207942 -0.272212 
				CHANNELS 3 Xrotation Zrotation Yrotation
				JOINT head
				{
					OFFSET 0.000000 3.130431 0.000000 
					CHANNELS 3 Xrotation Zrotation Yrotation
					End Site
					{
						OFFSET 0.000000 3.130435 0.000000 
					}
				}
			}
			JOINT lCollar
			{
				OFFSET 3.470700 6.669187 -0.816635 
				CHANNELS 3 Yrotation Zrotation Xrotation
				JOINT lShldr
				{
					OFFSET 3.198488 0.000000 0.000000 
					CHANNELS 3 Zrotation Yrotation Xrotation
					JOINT lForeArm
					{
						OFFSET 10.139888 0.000000 0.000000 
						CHANNELS 3 Yrotation Zrotation Xrotation
						JOINT lHand
						{
							OFFSET 8.370511 0.000000 0.000000 
							CHANNELS 3 Zrotation Yrotation Xrotation
							End Site
							{
								OFFSET 4.083176 0.000000 0.000000 
							}
						}
					}
				}
			}
			JOINT rCollar
			{
				OFFSET -3.470700 6.669187 -0.816635 
				CHANNELS 3 Yrotation Zrotation Xrotation
				JOINT rShldr
				{
					OFFSET -3.198488 0.000000 0.000000 
					CHANNELS 3 Zrotation Yrotation Xrotation
					JOINT rForeArm
					{
						OFFSET -10.139888 0.000000 0.000000 
						CHANNELS 3 Yrotation Zrotation Xrotation
						JOINT rHand
						{
							OFFSET -8.370511 0.000000 0.000000 
							CHANNELS 3 Zrotation Yrotation Xrotation
							End Site
							{
								OFFSET -4.083176 0.000000 0.000000 
							}
						}
					}
				}
			}
		}
	}
	JOINT lThigh
	{
		OFFSET 5.308129 -1.633274 1.361059 
		CHANNELS 3 Xrotation Zrotation Yrotation
		JOINT lShin
		{
			OFFSET -2.041588 -20.007561 0.000000 
			CHANNELS 3 Xrotation Zrotation Yrotation
			JOINT lFoot
			{
				OFFSET 0.000000 -19.190928 -1.224953 
				CHANNELS 3 Xrotation Yrotation Zrotation
				End Site
				{
					OFFSET 0.000000 -2.449906 4.627600 
				}
			}
		}
	}
	JOINT rThigh
	{
		OFFSET -5.308129 -1.633274 1.361059 
		CHANNELS 3 Xrotation Zrotation Yrotation
		JOINT rShin
		{
			OFFSET 2.041588 -20.007561 0.000000 
			CHANNELS 3 Xrotation Zrotation Yrotation
			JOINT rFoot
			{
				OFFSET 0.000000 -19.190928 -1.224953 
				CHANNELS 3 Xrotation Yrotation Zrotation
				End Site
				{
					OFFSET 0.000000 -2.449906 4.627600 
				}
			}
		}
	}
}
MOTION
Frames: 20
Frame Time: 0.050000
1.315097 53.475624 -4.651445 0.000000 0.000000 0.000000 -20.825577 0.115357 0.317466 -12.178433 -0.313025 -0.094342 5.335950 -1.000120 -0.032212 9.220411 0.280711 16.067442 8.290419 -0.094696 1.107665 -62.961323 10.679217 13.543579 -81.190422 -8.097614 -3.171250 75.704941 11.650187 -5.687750 -4.943633 3.574974 0.651595 60.662327 -8.301450 12.721831 66.077965 7.665501 12.417651 -73.724030 -19.481895 3.994303 -11.100560 2.087380 0.216420 10.040183 -2.995381 -0.287023 0.718425 1.082073 0.637667 -11.062395 -5.850107 -0.046693 10.094947 3.003951 0.095855 0.638668 -0.875882 2.739345 
1.301482 53.454670 -4.503643 0.000000 0.000000 0.000000 -20.511045 0.094956 0.295926 -12.090405 -0.342685 -0.114241 5.335950 -1.000120 -0.032212 8.890780 0.280711 6.997760 8.376680 -0.038998 1.117986 -63.111603 10.904716 13.515073 -81.276497 -8.680274 -7.579302 75.722519 11.019927 -5.687750 -4.979196 3.508996 0.656501 60.906475 -8.404526 12.717174 66.472618 8.219215 11.293159 -73.789474 -18.468699 3.954642 -10.803932 2.224873 0.215493 10.076163 -3.011573 -0.290116 0.400870 1.049075 0.523503 -10.892092 -5.756381 -0.035999 10.184278 2.977061 0.099630 0.385221 -0.918599 2.678955 
1.286424 53.434898 -4.349369 0.000000 0.000000 0.000000 -20.156128 0.076166 0.274142 -11.986047 -0.365141 -0.135059 5.335950 -1.000120 -0.032212 8.627332 0.280711 -2.078106 8.431240 -0.042394 1.120322 -63.212666 11.052543 13.494341 -81.224442 -9.148129 11.453605 75.740097 10.414029 -5.687750 -4.996646 3.475310 0.653305 61.038570 -8.453401 12.703837 66.743340 8.635043 31.790518 -73.854919 -17.480204 3.852738 -10.715137 2.176933 0.202515 10.228693 -2.978470 -0.288039 0.157983 1.072412 0.525714 -10.965322 -5.784906 -0.037121 10.736565 3.034877 0.149453 -0.101066 -0.922224 2.645722 
1.270044 53.416225 -4.189259 0.000000 0.000000 0.000000 -19.764242 0.058837 0.252132 -11.866491 -0.381061 -0.156492 5.335950 -1.000120 -0.032212 8.425063 0.280711 -10.441907 8.455674 -0.100136 1.115176 -63.266785 11.127905 13.481055 -81.043961 -9.505902 46.122265 75.757683 9.831062 -5.687750 -4.997046 3.471078 0.642735 61.067127 -8.451968 12.682648 66.897636 8.919904 66.340797 -73.920357 -16.515263 3.693578 -10.763491 2.232095 0.203313 10.731777 -3.030291 -0.333747 -0.288382 1.085393 0.529977 -11.282845 -5.810635 -0.032731 11.838208 3.112787 0.256838 -0.879408 -0.955866 2.580562 
1.252468 53.398586 -4.023930 0.000000 0.000000 0.000000 -19.338810 0.042819 0.229914 -11.732870 -0.391113 -0.178237 5.335950 -1.000120 -0.032212 8.279131 0.280711 -17.375481 8.451563 -0.207477 1.103051 -63.276264 11.136019 13.474894 -80.744789 -9.758321 85.310112 75.775269 9.269651 -5.687750 -4.981457 3.493464 0.625518 61.000675 -8.404126 12.654433 66.943039 9.080727 104.296783 -73.985794 -15.572782 3.481996 -11.174755 2.311346 0.222162 12.059752 -3.130114 -0.457673 -1.200906 1.103497 0.568022 -11.394887 -5.807710 -0.025903 12.468336 3.131700 0.309339 -1.392277 -0.974234 2.546844 
1.233813 53.381897 -3.853984 0.000000 0.000000 0.000000 -18.883251 0.027961 0.207504 -11.586314 -0.395964 -0.199991 5.335950 -1.000120 -0.032212 8.184856 0.280711 -22.160639 8.420486 -0.359668 1.084450 -63.243385 11.082096 13.475529 -80.336647 -9.910111 117.900543 75.792847 8.728485 -5.687750 -4.950944 3.539630 0.602380 60.847733 -8.313772 12.620020 66.887062 9.124436 135.011246 -74.051239 -14.651735 3.222676 -11.283802 2.361093 0.226080 12.694036 -3.171211 -0.512931 -1.725075 1.109140 0.563450 -11.497407 -5.823267 -0.017201 13.135139 3.201374 0.370087 -1.958602 -0.996132 2.492824 
1.214196 53.366100 -3.680012 0.000000 0.000000 0.000000 -18.400980 0.014115 0.184920 -11.427952 -0.396282 -0.221448 5.335950 -1.000120 -0.032212 8.137721 0.280711 -24.079193 8.364022 -0.551961 1.059877 -63.170425 10.971350 13.482635 -79.829239 -9.966000 132.776947 75.810425 8.206316 -5.687750 -4.906568 3.606738 0.574050 60.616814 -8.184801 12.580231 66.737206 9.057956 147.836929 -74.116684 -13.751163 2.920152 -11.333325 2.405683 0.236790 13.297147 -3.211026 -0.576338 -2.277096 1.123538 0.559404 -11.526469 -5.810888 -0.008488 13.652446 3.220814 0.416199 -2.449708 -1.027261 2.468413 
1.193729 53.351128 -3.502585 0.000000 0.000000 0.000000 -17.895414 0.001128 0.162179 -11.258913 -0.392735 -0.242307 5.335950 -1.000120 -0.032212 8.133371 0.280711 -22.646431 8.283748 -0.779608 1.029832 -63.059666 10.808991 13.495886 -79.232285 -9.930711 122.488243 75.828011 7.701962 -5.687750 -4.849391 3.691950 0.541255 60.316433 -8.021108 12.535889 66.500977 8.888209 135.700241 -74.182121 -12.870178 2.578812 -11.401390 2.460109 0.238231 13.869352 -3.253809 -0.619054 -2.781458 1.119269 0.564124 -11.590367 -5.814054 -0.010256 14.253758 3.261509 0.489552 -2.982605 -1.056610 2.413963 
1.172522 53.336918 -3.322269 0.000000 0.000000 0.000000 -17.369976 -0.011148 0.139298 -11.080328 -0.385990 -0.262264 5.335950 -1.000120 -0.032212 8.167614 0.280711 -18.311543 8.181242 -1.037862 0.994820 -62.913403 10.600234 13.514956 -78.555511 -9.808970 94.245224 75.845596 7.214309 -5.687750 -4.780475 3.792429 0.504721 59.955112 -7.826589 12.487821 66.185890 8.622121 105.822021 -74.247559 -12.007961 2.202889 -11.449656 2.509510 0.248556 14.451900 -3.289697 -0.681083 -3.309859 1.126463 0.559711 -11.598775 -5.799158 -0.001092 14.742434 3.269793 0.523252 -3.461432 -1.070708 2.379826 
1.150678 53.323402 -3.139612 0.000000 0.000000 0.000000 -16.828089 -0.022863 0.116294 -10.893331 -0.376715 -0.281014 5.335950 -1.000120 -0.032212 8.236419 0.280711 -11.757246 8.058085 -1.321973 0.955344 -62.733917 10.350291 13.539520 -77.808647 -9.605506 58.924500 75.863174 6.742315 -5.687750 -4.700884 3.905339 0.465177 59.541382 -7.605141 12.436853 65.799477 8.266616 68.997063 -74.313004 -11.163783 1.796478 -11.451406 2.546882 0.247323 14.928498 -3.305471 -0.724813 -3.787753 1.139063 0.545309 -11.597344 -5.782073 0.008194 15.217825 3.289071 0.567369 -3.940713 -1.102522 2.354734 
1.128303 53.310547 -2.955152 0.000000 0.000000 0.000000 -16.273169 -0.034168 0.093186 -10.699052 -0.365578 -0.298255 5.335950 -1.000120 -0.032212 8.335921 0.280711 -3.666220 7.915856 -1.627195 0.911907 -62.523502 10.064376 13.569254 -77.001411 -9.325042 27.402363 75.880753 6.285009 -5.687750 -4.611681 4.027840 0.423350 59.083755 -7.360660 12.383813 65.349251 7.828619 36.019855 -74.378448 -10.336990 1.363526 -11.401352 2.588371 0.253003 15.322155 -3.334616 -0.754612 -4.225925 1.133363 0.539720 -11.547707 -5.774317 0.018825 15.639995 3.323890 0.599871 -4.411446 -1.118609 2.300792 
1.105496 53.298275 -2.769418 0.000000 0.000000 0.000000 -15.708636 -0.045213 0.069989 -10.498622 -0.353246 -0.313682 5.335950 -1.000120 -0.032212 8.462417 0.280711 5.278851 7.756131 -1.948780 0.865010 -62.284435 9.747700 13.603830 -76.143524 -8.972304 10.555206 75.898338 5.841499 -5.687750 -4.513928 4.157096 0.379966 58.590755 -7.097041 12.329524 64.842728 7.315057 17.684967 -74.443886 -9.527024 0.907840 -11.360734 2.631287 0.259119 15.747180 -3.352884 -0.805397 -4.688728 1.136574 0.525021 -11.553981 -5.761656 0.018553 16.116022 3.334880 0.653148 -4.878325 -1.141452 2.265919 
1.082355 53.286556 -2.582932 0.000000 0.000000 0.000000 -15.137914 -0.056147 0.046721 -10.293172 -0.340387 -0.326993 5.335950 -1.000120 -0.032212 8.612362 0.280711 14.395278 7.580491 -2.281978 0.815158 -62.019005 9.405477 13.642923 -75.244698 -8.552019 15.874070 75.915924 5.410973 -5.687750 -4.408688 4.290269 0.335754 58.070896 -6.818181 12.274813 64.287415 6.732852 21.458866 -74.509323 -8.733425 0.433090 -11.339501 2.679448 0.256239 16.179729 -3.383291 -0.848176 -5.139416 1.138476 0.519792 -11.531921 -5.744235 0.037196 16.549364 3.361320 0.685761 -5.341311 -1.175445 2.220739 
1.058976 53.275341 -2.396207 0.000000 0.000000 0.000000 -14.564417 -0.067121 0.023400 -10.083832 -0.327669 -0.337884 5.335950 -1.000120 -0.032212 8.782373 0.280711 23.000401 7.390513 -2.622044 0.762852 -61.729507 9.042918 13.686209 -74.314667 -8.068912 37.308685 75.933502 4.992705 -5.687750 -4.297024 4.424523 0.291440 57.532707 -6.527976 12.220505 63.690834 6.088930 41.495598 -74.574768 -7.955839 -0.057184 -11.319334 2.722201 0.253670 16.634907 -3.400803 -0.881781 -5.616345 1.149593 0.505586 -11.430655 -5.728688 0.039189 16.834682 3.379668 0.707502 -5.726814 -1.194276 2.186441 
1.035450 53.264580 -2.209756 0.000000 0.000000 0.000000 -13.991568 -0.078286 0.000042 -9.871733 -0.315759 -0.346051 5.335950 -1.000120 -0.032212 8.969225 0.280711 30.411474 7.187779 -2.964228 0.708597 -61.418221 8.665239 13.733360 -73.363144 -7.527710 65.423187 75.951080 4.586071 -5.687750 -4.179997 4.557019 0.247752 56.984703 -6.230322 12.167425 63.060497 5.390218 68.620857 -74.640213 -7.194044 -0.559561 -11.257494 2.767110 0.259162 16.988264 -3.426367 -0.919007 -6.035226 1.145501 0.480307 -11.384509 -5.713866 0.049171 17.217546 3.406302 0.747466 -6.160225 -1.219429 2.151328 
1.011871 53.254250 -2.024100 0.000000 0.000000 0.000000 -13.422781 -0.089790 -0.023335 -9.658005 -0.305326 -0.351190 5.335950 -1.000120 -0.032212 9.169843 0.280711 35.945839 6.973866 -3.303782 0.652894 -61.087425 8.277651 13.784053 -72.399834 -6.933138 90.781921 75.968666 4.190545 -5.687750 -4.058671 4.684919 0.205418 56.435402 -5.929114 12.116398 62.403908 4.643640 93.660507 -74.705650 -6.447953 -1.070735 -11.147503 2.805950 0.252426 17.263830 -3.443369 -0.940133 -6.412454 1.146235 0.464476 -11.300026 -5.688401 0.060522 17.555124 3.408567 0.780403 -6.572922 -1.245930 2.115953 
0.988330 53.244305 -1.839756 0.000000 0.000000 0.000000 -12.861479 -0.101784 -0.046713 -9.443778 -0.297036 -0.352998 5.335950 -1.000120 -0.032212 9.381301 0.280711 38.920807 6.750352 -3.635958 0.596246 -60.739410 7.885365 13.837959 -71.434471 -6.289922 103.949188 75.986252 3.805721 -5.687750 -3.934108 4.805387 0.165164 55.893322 -5.628249 12.068251 61.728592 3.856121 107.440399 -74.771088 -5.717649 -1.587491 -11.066749 2.843658 0.256945 17.589962 -3.452251 -0.983707 -6.819008 1.145248 0.449037 -11.205841 -5.680215 0.061998 17.836874 3.440804 0.823825 -6.954199 -1.279267 2.070714 
0.964919 53.234726 -1.657267 0.000000 0.000000 0.000000 -12.310825 -0.114362 -0.070054 -9.230215 -0.291376 -0.351324 5.335950 -1.000120 -0.032212 9.600812 0.280711 38.855896 6.519031 -3.956773 0.539149 -60.376888 7.493150 13.894665 -70.475998 -5.603960 98.295967 76.003830 3.431328 -5.687750 -3.807395 4.916215 0.127562 55.365719 -5.331188 12.023619 61.041878 3.035271 103.490265 -74.836533 -5.003412 -2.106691 -10.955760 2.883597 0.250704 17.844954 -3.471880 -1.004010 -7.194607 1.148067 0.433363 -11.110666 -5.654149 0.072761 18.115448 3.439844 0.843254 -7.337477 -1.300263 2.035835 
0.941730 53.225494 -1.477198 0.000000 0.000000 0.000000 -11.772005 -0.127395 -0.093257 -9.018311 -0.288037 -0.346696 5.335950 -1.000120 -0.032212 9.825714 0.280711 36.149323 6.282412 -4.265990 0.481997 -60.004139 7.103456 13.953421 -69.528900 -4.885880 78.419975 76.021408 3.067257 -5.687750 -3.679588 5.018080 0.092449 54.853767 -5.039172 11.982244 60.349701 2.191094 86.155380 -74.901978 -4.305768 -2.625234 -10.864950 2.922007 0.245064 18.130983 -3.482973 -1.035005 -7.560136 1.149236 0.407931 -11.004855 -5.627404 0.083874 18.372049 3.449640 0.862261 -7.700850 -1.320073 2.010880 
0.918863 53.216591 -1.300167 0.000000 0.000000 0.000000 -11.245881 -0.140703 -0.116207 -8.809041 -0.286547 -0.339773 5.335950 -1.000120 -0.032212 10.053450 0.280711 31.380388 6.043107 -4.564137 0.425161 -59.625687 6.718192 14.013424 -68.596710 -4.147029 51.725834 76.038994 2.713594 -5.687750 -3.551722 5.112251 0.059516 54.357349 -4.752959 11.943695 59.657574 1.333854 62.485104 -74.967415 -3.625564 -3.140007 -10.774095 2.959335 0.239512 18.406771 -3.497012 -1.056069 -7.923855 1.160245 0.392779 -10.903072 -5.614143 0.095967 18.636433 3.469160 0.893126 -8.062872 -1.346691 1.965770 
